<svg xmlns="http://www.w3.org/2000/svg" viewBox="0 0 64 64"><g data-name="Hospital"><path d="m10 14h44v27h2v-29h-18v-10h-12v10h-18v24h2zm18-10h8v8h-8z"></path><path d="m33 5h-2v2h-2v2h2v2h2v-2h2v-2h-2z"></path><path d="m21 17h-8v6h8zm-2 4h-4v-2h4z"></path><path d="m31 17h-8v6h8zm-2 4h-4v-2h4z"></path><path d="m41 17h-8v6h8zm-2 4h-4v-2h4z"></path><path d="m51 17h-8v6h8zm-2 4h-4v-2h4z"></path><path d="m21 25h-8v6h8zm-2 4h-4v-2h4z"></path><path d="m31 25h-8v6h8zm-2 4h-4v-2h4z"></path><path d="m41 25h-8v6h8zm-2 4h-4v-2h4z"></path><path d="m51 25h-8v6h8zm-2 4h-4v-2h4z"></path><path d="m13 39h8v-6h-8zm2-4h4v2h-4z"></path><path d="m23 39h8v-6h-8zm2-4h4v2h-4z"></path><path d="m33 39h8v-6h-8zm2-4h4v2h-4z"></path><path d="m43 39h8v-6h-8zm2-4h4v2h-4z"></path><path d="m41 48h3v-6h-24v6h3v12h-9v2h38v-2h-11zm-19-2v-2h20v2zm11 14v-5h-2v5h-6v-12h6v5h2v-5h6v12z"></path><path d="m62 50c0-3.185-1.994-8-5-8s-5 4.815-5 8c0 2.9 1.721 5.321 4 5.879v4.121h-2v2h6v-2h-2v-4.121c2.279-.558 4-2.979 4-5.879zm-8 0c0-2.636 1.682-6 3-6s3 3.364 3 6c0 2.206-1.346 4-3 4s-3-1.794-3-4z"></path><path d="m9 53.9c2.833-.558 5-3.433 5-6.9 0-3.583-2.393-9-6-9s-6 5.417-6 9c0 3.462 2.167 6.337 5 6.9v6.1h-3v2h8v-2h-3zm-5-6.9c0-2.927 2.016-7 4-7s4 4.073 4 7c0 2.757-1.794 5-4 5s-4-2.243-4-5z"></path></g></svg>