<svg xmlns="http://www.w3.org/2000/svg" viewBox="0 0 496 496"><path d="m139.6875 200.375c-5.34375-5.335938-12.777344-8.277344-20.289062-8.296875-9.957032.097656-19.015626 5.378906-24.222657 14.121094-3.9375 6.59375-9.007812 14-14.671875 21.441406l-73.984375 97.085937c-4.199219 5.53125-6.519531 12.402344-6.519531 19.34375 0 17.609376 14.320312 31.929688 31.921875 31.929688h2.820313c4.65625 0 9.160156-.992188 13.386718-2.945312l93.992188-43.375c2.382812-1.09375 5.023437-1.679688 7.648437-1.679688 10.054688 0 18.230469 8.175781 18.230469 18.238281 0 2.664063-.558594 5.234375-1.679688 7.640625l-43.375 93.992188c-1.929687 4.160156-2.945312 8.792968-2.945312 13.386718v2.820313c0 17.601563 14.320312 31.921875 31.921875 31.921875 6.949219 0 13.832031-2.320312 19.351563-6.527344l97.09375-73.976562c7.410156-5.648438 14.816406-10.710938 21.417968-14.65625 8.734375-5.199219 14.007813-14.238282 14.117188-24.199219.089844-7.578125-2.933594-14.992187-8.285156-20.34375zm141.898438 186.722656c-7.210938 4.300782-14.921876 9.574219-22.921876 15.664063l-97.097656 73.980469c-2.742187 2.097656-6.175781 3.257812-9.644531 3.257812-8.777344 0-15.921875-7.144531-15.921875-15.929688v-2.824218c0-2.285156.503906-4.589844 1.472656-6.671875l43.375-93.988281c2.089844-4.523438 3.152344-9.347657 3.152344-14.347657 0-18.878906-15.359375-34.238281-34.230469-34.238281-4.921875 0-9.882812 1.089844-14.355469 3.152344l-93.988281 43.382812c-2.113281.96875-4.363281 1.464844-6.683593 1.464844h-2.820313c-8.777344 0-15.921875-7.144531-15.921875-15.929688 0-3.460937 1.160156-6.894531 3.257812-9.644531l73.972657-97.097656c6.113281-8.015625 11.386719-15.734375 15.679687-22.9375 2.328125-3.910156 6.304688-6.269531 10.640625-6.320313 3.175781.113282 6.496094 1.289063 8.824219 3.609376l155.921875 155.921874c2.328125 2.328126 3.640625 5.550782 3.597656 8.886719-.046875 4.320313-2.398437 8.28125-6.308593 10.609375zm0 0"></path><path d="m312.902344 111.089844-15.503906 3.964844c5.160156 20.160156 15.640624 38.5625 30.3125 53.226562 15.074218 15.078125 34.023437 25.695312 54.800781 30.710938l3.753906-15.550782c-17.914063-4.320312-34.242187-13.472656-47.234375-26.472656-12.640625-12.632812-21.679688-28.496094-26.128906-45.878906zm0 0"></path><path d="m172.023438 87.832031-.261719 3.550781c-.539063 3.601563-1.175781 7.273438-1.9375 11.050782l15.6875 3.140625c.808593-4.03125 1.496093-7.949219 2.082031-11.8125l.4375-5.929688c-.007812-21.96875 17.855469-39.832031 39.816406-39.832031h20.152344v-16h-20.152344c-30.777344 0-55.824218 25.039062-55.824218 55.832031zm0 0"></path><path d="m161.984375 133.199219 15.328125 4.601562c1.664062-5.535156 3.128906-10.792969 4.421875-15.816406l-15.503906-3.984375c-1.230469 4.832031-2.644531 9.871094-4.246094 15.199219zm0 0"></path><path d="m404.023438 153.976562c-15.984376-1.320312-31.03125-8.296874-42.367188-19.632812s-18.3125-26.382812-19.632812-42.367188c-4.335938-52.433593-45.742188-91.976562-96.328126-91.976562h-17.839843c-48.214844 0-87.496094 39.0625-87.832031 87.207031-1.816407 11.847657-4.832032 24.3125-9.742188 40.304688-1.511719 4.894531-2.28125 9.914062-2.28125 14.914062 0 13.46875 5.246094 26.132813 14.777344 35.652344l175.144531 175.152344c9.527344 9.523437 22.183594 14.769531 35.644531 14.769531 4.992188 0 10.007813-.769531 14.90625-2.273438 16.015625-4.925781 28.488282-7.941406 40.3125-9.757812 48.144532-.328125 87.214844-39.601562 87.214844-87.824219v-17.839843c0-50.578126-39.535156-91.984376-91.976562-96.328126zm75.976562 114.167969c0 39.609375-32.214844 71.832031-71.832031 71.832031l-1.183594.085938c-12.824219 1.921875-26.152344 5.121094-43.207031 10.371094-12.546875 3.863281-25.640625.375-34.546875-8.511719l-175.140625-175.152344c-6.515625-6.503906-10.089844-15.144531-10.089844-24.34375 0-3.402343.519531-6.832031 1.566406-10.203125 5.167969-16.816406 8.464844-30.542968 10.371094-43.207031l.085938-1.183594c0-39.609375 32.214843-71.832031 71.824218-71.832031h17.839844c42.183594 0 76.746094 33.230469 80.382812 77.296875 1.632813 19.75 10.257813 38.34375 24.265626 52.359375 14.007812 14.015625 32.609374 22.632812 52.367187 24.265625 44.074219 3.644531 77.296875 38.207031 77.296875 80.382813zm0 0"></path><path d="m418.34375 394.34375-61.65625 61.65625 10.089844 10.089844-37.570313 4.695312 4.695313-37.5625 10.097656 10.089844 61.65625-61.65625-11.3125-11.3125-50.34375 50.34375-21.902344-21.910156-11.304687 90.4375 90.429687-11.304688-21.910156-21.910156 50.34375-50.34375zm0 0"></path><path d="m75.3125 152 50.34375-50.34375-11.3125-11.3125-61.65625 61.65625 10.089844 10.089844-37.570313 4.695312 4.695313-37.5625 10.097656 10.089844 61.65625-61.65625-11.3125-11.3125-50.34375 50.34375-21.902344-21.910156-11.304687 90.4375 90.429687-11.304688zm0 0"></path></svg>