<svg xmlns="http://www.w3.org/2000/svg" viewBox="0 0 64 64"><g><path d="M28,2H18V4h7.9a19.921,19.921,0,0,1-.778,4H20v2h4.375c-1.628,3.622-4.324,6-7.375,6s-5.747-2.378-7.375-6H18V8H8.881A19.921,19.921,0,0,1,8.1,4H16V2H6c0,6.882,3.009,12.746,7.209,15C9.009,19.254,6,25.118,6,32s3.009,12.746,7.209,15C9.009,49.254,6,55.118,6,62H16V60H8.1a19.921,19.921,0,0,1,.778-4H12V54H9.625c1.628-3.622,4.324-6,7.375-6s5.747,2.378,7.375,6H18v2h7.119a19.921,19.921,0,0,1,.778,4H18v2H28c0-6.882-3.009-12.746-7.209-15C24.991,44.746,28,38.882,28,32s-3.009-12.746-7.209-15C24.991,14.746,28,8.882,28,2ZM24.782,25H18v2h7.4a20.6,20.6,0,0,1,.571,4H18v2h7.967a20.6,20.6,0,0,1-.571,4H20v2h4.782c-1.559,4.177-4.459,7-7.782,7s-6.223-2.823-7.782-7H18V37H8.6a20.6,20.6,0,0,1-.571-4H16V31H8.033A20.6,20.6,0,0,1,8.6,27H12V25H9.218c1.559-4.177,4.459-7,7.782-7S23.223,20.823,24.782,25Z"></path><rect x="14" y="25" width="2" height="2"></rect><rect x="14" y="54" width="2" height="2"></rect><path d="M58,32c0-6.882-3.009-12.746-7.209-15C54.991,14.746,58,8.882,58,2H56c0,.681-.042,1.345-.1,2H45V6H55.621a18.1,18.1,0,0,1-1.246,4H50v2h3.287c-1.624,2.47-3.842,4-6.287,4s-4.663-1.53-6.287-4H48V10H39.625a18.1,18.1,0,0,1-1.246-4H43V4H38.1c-.061-.655-.1-1.319-.1-2H36c0,6.882,3.009,12.746,7.209,15C39.009,19.254,36,25.118,36,32s3.009,12.746,7.209,15C39.009,49.254,36,55.118,36,62h2c0-.681.042-1.345.1-2H50V58H38.379a18.1,18.1,0,0,1,1.246-4H42V52H40.713c1.624-2.47,3.842-4,6.287-4s4.663,1.53,6.287,4H48v2h6.375a18.1,18.1,0,0,1,1.246,4H52v2h3.9c.061.655.1,1.319.1,2h2c0-6.882-3.009-12.746-7.209-15C54.991,44.746,58,38.882,58,32ZM47,46c-2.445,0-4.663-1.53-6.287-4H44V40H39.625a18.1,18.1,0,0,1-1.246-4H48V34H38.1c-.061-.655-.1-1.319-.1-2s.042-1.345.1-2H42V28H38.379a18.1,18.1,0,0,1,1.246-4H48V22H40.713c1.624-2.47,3.842-4,6.287-4s4.663,1.53,6.287,4H50v2h4.375a18.1,18.1,0,0,1,1.246,4H48v2h7.9c.061.655.1,1.319.1,2s-.042,1.345-.1,2H50v2h5.621a18.1,18.1,0,0,1-1.246,4H46v2h7.287C51.663,44.47,49.445,46,47,46Z"></path><rect x="44" y="28" width="2" height="2"></rect><rect x="44" y="52" width="2" height="2"></rect></g></svg>