<svg xmlns="http://www.w3.org/2000/svg" viewBox="0 0 64 64"><g><path d="M46,40H33V32.949A13.008,13.008,0,0,0,45,20V18a3,3,0,0,0-2-2.816V7a3,3,0,0,0-3-3,2,2,0,0,0-2-2,3,3,0,0,0,0,6,2,2,0,0,0,2-2,1,1,0,0,1,1,1v8.184A3,3,0,0,0,39,18v2a7.027,7.027,0,0,1-2.223,5.111,6.937,6.937,0,0,1-5.258,1.873A7.168,7.168,0,0,1,25,19.717V18a3,3,0,0,0-2-2.816V7a1,1,0,0,1,1-1,2,2,0,0,0,2,2,3,3,0,0,0,0-6,2,2,0,0,0-2,2,3,3,0,0,0-3,3v8.184A3,3,0,0,0,19,18v2A13.008,13.008,0,0,0,31,32.949V40H18.91a6,6,0,1,0,0,2H31v8A12.013,12.013,0,0,0,43,62h3a11,11,0,0,0,0-22ZM38,6a1,1,0,0,1,0-2V6ZM26,4a1,1,0,0,1,0,2ZM13,45a4,4,0,1,1,4-4A4,4,0,0,1,13,45Zm8-25V18a1,1,0,0,1,2,0v1.717a9.172,9.172,0,0,0,8.386,9.262,8.933,8.933,0,0,0,6.758-2.407A9.033,9.033,0,0,0,41,20V18a1,1,0,0,1,2,0v2a11,11,0,0,1-22,0ZM46,60H43A10.011,10.011,0,0,1,33,50V42H46a9,9,0,0,1,0,18Z"></path><circle cx="13" cy="41" r="2"></circle></g></svg>