<svg xmlns="http://www.w3.org/2000/svg" viewBox="0 -1 498.448 498"><path d="m134.070312 207.351562-7.246093 14.265626c13.648437 6.941406 28.960937 10.605468 44.28125 10.605468 14.765625 0 29.582031-3.421875 42.847656-9.886718l-7.015625-14.382813c-22.609375 11.023437-50.449219 10.800781-72.867188-.601563zm0 0"></path><path d="m70.3125 346.929688c1.878906 5.230468 3.695312 10.496093 5.441406 15.789062l15.199219-5c-1.792969-5.429688-3.648437-10.832031-5.578125-16.207031zm0 0"></path><path d="m55.480469 271.519531c-2.855469-5.710937-4.375-12.121093-4.375-18.519531v-3.328125c0-5.03125.894531-9.953125 2.664062-14.617187l-14.96875-5.664063c-2.457031 6.480469-3.695312 13.304687-3.695312 20.28125v3.328125c0 8.871094 2.09375 17.761719 6.0625 25.679688 8.457031 16.914062 16.273437 34.550781 23.238281 52.449218l14.90625-5.808594c-7.136719-18.351562-15.160156-36.449218-23.832031-53.800781zm0 0"></path><path d="m301.664062 163.449219 68.785157 55.023437 68.78125-55.023437c12.210937-9.777344 19.21875-24.351563 19.21875-40 0-28.242188-22.976563-51.226563-51.226563-51.226563h-2.863281c-12.617187 0-24.535156 4.53125-33.902344 12.824219-9.378906-8.292969-21.296875-12.824219-33.914062-12.824219h-2.863281c-28.253907 0-51.230469 22.984375-51.230469 51.226563 0 15.648437 7.007812 30.222656 19.214843 40zm32.007813-75.226563h2.863281c9.410156 0 18.257813 3.664063 24.914063 10.3125l9 9.007813 8.992187-9c6.65625-6.65625 15.503906-10.320313 24.910156-10.320313h2.863282c19.425781 0 35.234375 15.800782 35.234375 35.226563 0 10.757812-4.824219 20.78125-13.21875 27.503906l-58.78125 47.023437-58.785157-47.023437c-8.390624-6.722656-13.214843-16.746094-13.214843-27.503906 0-19.425781 15.808593-35.226563 35.222656-35.226563zm0 0"></path><path d="m466.449219 336.222656h-16c0 17.648438-14.351563 32-32 32v16c17.648437 0 32 14.351563 32 32h16c0-17.648437 14.351562-32 32-32v-16c-17.648438 0-32-14.351562-32-32zm-8 53.519532c-3.5625-5.359376-8.160157-9.957032-13.519531-13.519532 5.359374-3.558594 9.957031-8.160156 13.519531-13.519531 3.558593 5.359375 8.160156 9.960937 13.519531 13.519531-5.359375 3.5625-9.960938 8.160156-13.519531 13.519532zm0 0"></path><path d="m58.449219 120.222656h16c0-17.648437 14.351562-32 32-32v-16c-17.648438 0-32-14.351562-32-32h-16c0 17.648438-14.351563 32-32 32v16c17.648437 0 32 14.351563 32 32zm8-53.519531c3.558593 5.359375 8.160156 9.960937 13.519531 13.519531-5.359375 3.5625-9.960938 8.160156-13.519531 13.519532-3.5625-5.359376-8.160157-9.957032-13.519531-13.519532 5.359374-3.558594 9.957031-8.160156 13.519531-13.519531zm0 0"></path><path d="m178.449219 152.222656h16c0-17.648437 14.351562-32 32-32v-16c-17.648438 0-32-14.351562-32-32h-16c0 17.648438-14.351563 32-32 32v16c17.648437 0 32 14.351563 32 32zm8-53.519531c3.558593 5.359375 8.160156 9.960937 13.519531 13.519531-5.359375 3.5625-9.960938 8.160156-13.519531 13.519532-3.5625-5.359376-8.160157-9.957032-13.519531-13.519532 5.359374-3.558594 9.957031-8.160156 13.519531-13.519531zm0 0"></path><path d="m354.449219 296.222656h-16c0 15-10.417969 27.53125-24.371094 30.976563 4.898437-11.589844 10.011719-23.054688 15.585937-34.207031 6.167969-12.359376 9.441407-26.191407 9.441407-40v-.113282l.796875-.472656c10.203125 2.539062 20.457031 3.816406 30.546875 3.816406 70.574219 0 128-57.421875 128-128 0-70.574218-57.425781-128-128-128-70.578125 0-128 57.425782-128 128 0 11.625.941406 22.335938 2.855469 32.203125-14.550782.671875-29.023438 4.964844-41.65625 12.542969l-6.9375 4.167969c-15.453126 9.269531-35.75 9.269531-51.199219 0l-6.9375-4.167969c-13.910157-8.335938-29.820313-12.746094-46.023438-12.746094-49.320312 0-89.445312 40.128906-89.445312 89.441406v3.335938c0 13.816406 3.261719 27.648438 9.445312 40 14.511719 29.03125 26.617188 59.703125 36.320313 91.222656h-11.535156l-37.335938 112h342.207031l-37.335937-112h-11.527344c4.152344-13.488281 8.664062-26.847656 13.726562-39.933594 17.355469.335938 31.378907 14.503907 31.378907 31.933594h16c0-17.648437 14.351562-32 32-32v-16c-17.648438 0-32-14.351562-32-32zm16-280c61.757812 0 112 50.242188 112 112 0 61.761719-50.242188 112-112 112-9.746094 0-19.714844-1.375-29.625-4.09375l-3.257813-.898437-36.414062 21.417969 6.078125-36.449219-4.621094-2.816407c-30.546875-18.566406-44.160156-46.0625-44.160156-89.160156 0-61.757812 50.238281-112 112-112zm-50.449219 464h-297.792969l26.664063-80h244.464844zm-254.257812-96c-10.175782-34.03125-23.246094-67.101562-38.878907-98.382812-5.078125-10.144532-7.757812-21.503906-7.757812-32.839844v-3.335938c0-40.496093 32.941406-73.441406 73.445312-73.441406 13.304688 0 26.378907 3.617188 37.785157 10.464844l6.9375 4.167969c20.4375 12.257812 47.230468 12.257812 67.671874 0l6.933594-4.167969c11.402344-6.847656 24.578125-10.296875 37.769532-10.207031 7.375 21.640625 20.503906 38.589843 40.039062 51.648437l-9.945312 59.671875 42.640624-25.082031c-1.078124 8.023438-3.414062 15.890625-7.03125 23.121094-15.617187 31.230468-28.6875 64.304687-38.886718 98.382812zm280.707031-34.480468c-3.5625-5.359376-8.160157-9.957032-13.519531-13.519532 5.359374-3.558594 9.957031-8.160156 13.519531-13.519531 3.558593 5.359375 8.160156 9.960937 13.519531 13.519531-5.359375 3.5625-9.960938 8.160156-13.519531 13.519532zm0 0"></path><path d="m248.203125 361.183594 6.304687-14.707032 14.707032 6.304688-6.304688 14.707031zm0 0"></path><path d="m260.800781 331.769531 6.304688-14.707031 14.707031 6.308594-6.308594 14.703125zm0 0"></path><path d="m274.449219 448.222656h16v16h-16zm0 0"></path><path d="m242.449219 448.222656h16v16h-16zm0 0"></path><path d="m210.449219 448.222656h16v16h-16zm0 0"></path></svg>