<svg xmlns="http://www.w3.org/2000/svg" viewBox="0 0 64 64"><path d="m47.557 32 9.9-9.9a11 11 0 0 0 -15.557-15.556l-9.9 9.9-9.9-9.9a11 11 0 0 0 -15.556 15.556l9.9 9.9-9.9 9.9a11 11 0 0 0 15.556 15.556l9.9-9.9 9.9 9.9a11 11 0 0 0 15.556-15.556zm-4.244-24.042a9 9 0 0 1 12.729 12.729l-9.9 9.9-12.728-12.729zm-35.355 12.729a9 9 0 0 1 12.729-12.729l9.9 9.9-12.729 12.728zm12.729 35.355a9 9 0 0 1 -12.729-12.729l9.9-9.9 12.728 12.729zm-1.415-24.042 12.728-12.728 12.728 12.728-12.728 12.728zm36.77 24.042a9 9 0 0 1 -12.729 0l-9.9-9.9 12.729-12.728 9.9 9.9a9.012 9.012 0 0 1 0 12.728z"></path><path d="m9.08 13.322h2v2h-2z" transform="matrix(.707 -.707 .707 .707 -7.175 11.322)"></path><path d="m13.322 9.08h2v2h-2z" transform="matrix(.707 -.707 .707 .707 -2.932 13.08)"></path><path d="m11.908 16.151h2v2h-2z" transform="matrix(.707 -.707 .707 .707 -8.347 14.151)"></path><path d="m16.151 11.908h2v2h-2z" transform="matrix(.707 -.707 .707 .707 -4.104 15.908)"></path><path d="m14.736 18.979h2v2h-2z" transform="matrix(.707 -.707 .707 .707 -9.518 16.979)"></path><path d="m18.979 14.737h2v2h-2z" transform="matrix(.707 -.707 .707 .707 -5.276 18.737)"></path><path d="m17.565 21.808h2v2h-2z" transform="matrix(.707 -.707 .707 .707 -10.69 19.808)"></path><path d="m21.808 17.565h2v2h-2z" transform="matrix(.707 -.707 .707 .707 -6.447 21.565)"></path><path d="m48.678 9.08h2v2h-2z" transform="matrix(.707 -.707 .707 .707 7.423 38.08)"></path><path d="m52.92 13.322h2v2h-2z" transform="matrix(.707 -.707 .707 .707 5.665 42.322)"></path><path d="m45.85 11.908h2v2h-2z" transform="matrix(.707 -.707 .707 .707 4.594 36.908)"></path><path d="m50.092 16.151h2v2h-2z" transform="matrix(.707 -.707 .707 .707 2.837 41.151)"></path><path d="m43.021 14.737h2v2h-2z" transform="matrix(.707 -.707 .707 .707 1.762 35.729)"></path><path d="m47.264 18.979h2v2h-2z" transform="matrix(.707 -.707 .707 .707 .005 39.971)"></path><path d="m40.192 17.565h2v2h-2z" transform="matrix(.707 -.707 .707 .707 -1.062 34.565)"></path><path d="m44.435 21.807h2v2h-2z" transform="matrix(.707 -.707 .707 .707 -2.814 38.824)"></path><path d="m17.565 40.192h2v2h-2z" transform="matrix(.707 -.707 .707 .707 -23.69 25.192)"></path><path d="m21.808 44.435h2v2h-2z" transform="matrix(.707 -.707 .707 .707 -25.447 29.435)"></path><path d="m14.737 43.021h2v2h-2z" transform="matrix(.707 -.707 .707 .707 -26.518 24.021)"></path><path d="m18.979 47.263h2v2h-2z" transform="matrix(.707 -.707 .707 .707 -28.276 28.263)"></path><path d="m11.908 45.849h2v2h-2z" transform="matrix(.707 -.707 .707 .707 -29.347 22.849)"></path><path d="m16.151 50.092h2v2h-2z" transform="matrix(.707 -.707 .707 .707 -31.104 27.092)"></path><path d="m9.08 48.678h2v2h-2z" transform="matrix(.707 -.707 .707 .707 -32.175 21.678)"></path><path d="m13.322 52.921h2v2h-2z" transform="matrix(.707 -.707 .707 .707 -33.933 25.92)"></path><path d="m40.192 44.435h2v2h-2z" transform="matrix(.707 -.707 .707 .707 -20.062 42.435)"></path><path d="m44.435 40.192h2v2h-2z" transform="matrix(.707 -.707 .707 .707 -15.821 44.171)"></path><path d="m43.02 47.264h2v2h-2z" transform="matrix(.707 -.707 .707 .707 -21.234 45.263)"></path><path d="m47.264 43.021h2v2h-2z" transform="matrix(.707 -.707 .707 .707 -16.991 47.021)"></path><path d="m45.85 50.092h2v2h-2z" transform="matrix(.707 -.707 .707 .707 -22.405 48.092)"></path><path d="m50.092 45.849h2v2h-2z" transform="matrix(.707 -.707 .707 .707 -18.163 49.849)"></path><path d="m48.678 52.921h2v2h-2z" transform="matrix(.707 -.707 .707 .707 -23.577 50.92)"></path><path d="m52.92 48.678h2v2h-2z" transform="matrix(.707 -.707 .707 .707 -19.335 52.677)"></path></svg>