<svg xmlns="http://www.w3.org/2000/svg" viewBox="0 0 496 496.488"><path d="m393.875 163.929688c-14.34375-4.417969-27.519531-12.355469-38.117188-22.960938-10.601562-10.59375-18.539062-23.777344-22.960937-38.121094l-.367187-1.191406-15.296876 4.695312.367188 1.199219c5.191406 16.832031 14.503906 32.304688 26.945312 44.730469 12.429688 12.4375 27.894532 21.75 44.71875 26.933594l1.199219.371094 4.722657-15.289063zm0 0"></path><path d="m358.292969 279.640625 4.855469 15.238281c5.121093-1.632812 10.320312-3.144531 15.617187-4.542968l-4.097656-15.472657c-5.535157 1.472657-11.007813 3.066407-16.375 4.777344zm0 0"></path><path d="m455.378906 196.015625-13.3125 8.863281c4.355469 6.554688 6.65625 14.234375 6.65625 22.21875 0 19.964844-14.328125 36.597656-34.078125 39.566406-8.046875 1.207032-15.992187 2.65625-23.609375 4.296876l3.375 15.640624c7.289063-1.570312 14.898438-2.953124 22.609375-4.113281 27.640625-4.152343 47.703125-27.449219 47.703125-55.390625 0-11.152344-3.222656-21.898437-9.34375-31.082031zm0 0"></path><path d="m434.589844 142.976562-31.296875-9.632812c-9.359375-2.878906-17.976563-8.070312-24.914063-15.007812-6.917968-6.921876-12.109375-15.535157-15-24.910157l-9.632812-31.304687c-11.4375-37.152344-45.230469-62.121094-84.117188-62.121094-43.914062 0-80.519531 31.519531-87.039062 74.960938-5.898438 39.351562-18.585938 75.597656-36.675782 104.832031l-3.324218 5.382812 8.980468 8.984375-16.007812 48 13.839844 13.839844-140.214844 140.230469-8.945312 62.601562 37.65625 37.65625 62.601562-8.945312 140.222656-140.230469 13.839844 13.839844 48-16 8.984375 8.984375 5.394531-3.335938c29.230469-18.097656 65.496094-30.777343 104.832032-36.671875 42.726562-6.410156 74.949218-43.824218 74.949218-87.03125 0-38.890625-24.964844-72.691406-62.132812-84.121094zm-406.554688 257.023438 12.6875-12.6875 68.6875 68.6875-12.6875 12.6875zm24-24 12.6875-12.6875 68.6875 68.6875-12.6875 12.6875zm24-24 12.6875-12.6875 68.6875 68.6875-12.6875 12.6875zm24-24 12.6875-12.6875 68.6875 68.6875-12.6875 12.6875zm24-24 12.6875-12.6875 68.6875 68.6875-12.6875 12.6875zm-106.824218 149.167969 5.167968-36.207031 57.378906 57.375-36.203124 5.175781zm199.511718-104.480469-68.6875-68.6875 12.6875-12.6875 68.6875 68.6875zm42.167969-5.839844-105.007813-105.007812 10.335938-31.03125 125.695312 125.695312zm160.503906-44.535156c-39.664062 5.945312-75.101562 17.917969-105.4375 35.617188l-151.152343-151.167969c17.6875-30.328125 29.664062-65.761719 35.617187-105.433594 5.324219-35.535156 35.277344-61.328125 71.207031-61.328125 31.816406 0 59.472656 20.433594 68.824219 50.832031l9.632813 31.304688c3.652343 11.863281 10.214843 22.757812 18.980468 31.519531 8.777344 8.769531 19.679688 15.335938 31.523438 18.976562l31.292968 9.632813c30.410157 9.359375 50.839844 37.015625 50.839844 68.832031 0 35.351563-26.367187 65.964844-61.328125 71.214844zm0 0"></path><path d="m201.691406 204.289062 11.3125-11.316406 11.3125 11.316406-11.3125 11.3125zm0 0"></path><path d="m179.0625 181.65625 11.316406-11.3125 11.3125 11.3125-11.3125 11.3125zm0 0"></path><path d="m224.324219 226.894531 11.316406-11.308593 10.738281 10.742187-11.3125 11.3125zm0 0"></path></svg>