<svg xmlns="http://www.w3.org/2000/svg" viewBox="0 0 64 64"><g><path d="M29.118,18.555A3.1,3.1,0,0,1,27,15.687V14h3V5a3,3,0,0,0-3-3H15a3,3,0,0,0-3,3v9h3v1.687a3.1,3.1,0,0,1-2.118,2.868A9.034,9.034,0,0,0,7,27V62H35V27A9.034,9.034,0,0,0,29.118,18.555ZM14,5a1,1,0,0,1,1-1H27a1,1,0,0,1,1,1V8H14Zm0,7V10H28v2ZM33,32H17V54H28V52H19V34H33v2H26v2h7v2H26v2h7v2H21v2H33v2H21v2H33v2H30v2h3v6H9V27a7.025,7.025,0,0,1,4.575-6.569A5.074,5.074,0,0,0,17,15.687V14h8v1.687a5.074,5.074,0,0,0,3.425,4.744A7.025,7.025,0,0,1,33,27Z"></path><path d="M11,27h2a3.012,3.012,0,0,1,1.959-2.816l-.692-1.876A5.017,5.017,0,0,0,11,27Z"></path><rect x="11" y="29" width="2" height="28"></rect><path d="M56,15c0-4.566-3.711-13-9-13s-9,8.434-9,13a12.761,12.761,0,0,0,4.332,9.165,4.886,4.886,0,0,1,1.694,4.227L41.464,55.927a5.56,5.56,0,1,0,11.072,0L49.974,28.392a4.886,4.886,0,0,1,1.694-4.227h0A12.761,12.761,0,0,0,56,15Zm-5.61,7.627h0a6.883,6.883,0,0,0-2.406,5.951l2.561,27.535a3.559,3.559,0,1,1-7.088,0l2.561-27.535a6.881,6.881,0,0,0-2.407-5.951A10.626,10.626,0,0,1,40,15c0-4.138,3.391-11,7-11s7,6.862,7,11A10.626,10.626,0,0,1,50.39,22.627Z"></path><path d="M44,15a13.632,13.632,0,0,1,1.827-5.491L44.106,8.491A15.16,15.16,0,0,0,42,15a8.742,8.742,0,0,0,2.89,6.09l1.279-1.538A6.742,6.742,0,0,1,44,15Z"></path></g></svg>