<svg xmlns="http://www.w3.org/2000/svg" viewBox="0 0 64 64"><g><path d="M59.677,26.117a4.039,4.039,0,0,0-5.595,2.739L51.813,37.31a4.014,4.014,0,0,0-4.374-.037c-.175.114-9.3,5.938-9.3,5.939A10.94,10.94,0,0,0,33,52.522V62h2V52.522A8.955,8.955,0,0,1,39.213,44.9s9.137-5.835,9.311-5.948a2.011,2.011,0,0,1,2.5.269,2,2,0,0,1,.054,2.772l-5.832,4.1A1,1,0,0,0,45,47.485h0a1,1,0,0,0,1.393.243l5.91-4.153.132-.112a3.945,3.945,0,0,0,.921-4.187l2.658-9.9a2.106,2.106,0,0,1,2.379-1.595,2.007,2.007,0,0,1,1.587,1.95,1.963,1.963,0,0,1-.066.521l-3.6,13.456a3,3,0,0,1-.776,1.344L48.05,52.536A7,7,0,0,0,46,57.485V62h2V57.486a5,5,0,0,1,1.465-3.536l7.484-7.485a5,5,0,0,0,1.294-2.242l3.6-13.452a4.06,4.06,0,0,0,.117-1.433A4.014,4.014,0,0,0,59.677,26.117Z"></path><path d="M25.864,43.216c-2.791-1.787-9.309-5.959-9.56-6.095a4.017,4.017,0,0,0-4.117.191l-2.27-8.456a4.019,4.019,0,0,0-6.48-2.175,3.7,3.7,0,0,0-1.189,1.667,4.205,4.205,0,0,0-.094,2.421l3.6,13.454a5,5,0,0,0,1.294,2.243l7.485,7.485A5,5,0,0,1,16,57.485V62h2V57.486a7,7,0,0,0-2.051-4.95L8.465,45.052a3,3,0,0,1-.776-1.344l-3.6-13.459a1.979,1.979,0,0,1-.065-.519,2.006,2.006,0,0,1,1.588-1.95,2.113,2.113,0,0,1,2.377,1.595l2.659,9.9a3.943,3.943,0,0,0,.921,4.186l6.042,4.263A1,1,0,0,0,19,47.485h0a1,1,0,0,0-.243-1.393l-5.832-4.1a2,2,0,0,1,.053-2.772,2.005,2.005,0,0,1,2.352-.354c.315.186,5.827,3.71,9.462,6.037A8.952,8.952,0,0,1,29,52.522V62h2V52.522A10.938,10.938,0,0,0,25.864,43.216Z"></path><path d="M50.516,6.432A12.906,12.906,0,0,0,41.35,2.65c-3.639,0-7.022,2.629-9.221,4.837l-.144.144-.158-.158c-2.2-2.2-5.571-4.813-9.187-4.813a13,13,0,0,0-9.176,22.217L32,42.373,50.569,24.815a12.991,12.991,0,0,0-.053-18.383ZM49.172,23.385,32,39.627,14.857,23.443A11.005,11.005,0,0,1,22.64,4.66c2.931,0,5.845,2.3,7.773,4.228L32,10.468,33.549,8.9c2.726-2.738,5.5-4.246,7.8-4.246a11,11,0,0,1,7.822,18.735Z"></path><path d="M35,28V24h4V18H35V14H29v4H25v6h4v4Zm-8-6V20h4V16h2v4h4v2H33v4H31V22Z"></path></g></svg>