<svg xmlns="http://www.w3.org/2000/svg" viewBox="0 0 64 64"><path d="m49 35h-1.617l10.834-10.833a13 13 0 1 0 -18.384-18.384l-24.05 24.05a13.005 13.005 0 0 0 -3.24 5.407 13 13 0 0 0 2.457 25.76h34a13 13 0 0 0 0-26zm-7.753-27.8a11 11 0 0 1 15.553 15.553l-11.31 11.323-15.561-15.561zm-24.047 24.048 11.315-11.319 15.071 15.071h-28.586c-.089 0-.175.012-.264.013a11 11 0 0 1 2.464-3.765zm-13.2 16.752a11.013 11.013 0 0 1 11-11h16v22h-16a11.013 11.013 0 0 1 -11-11zm45 11h-16v-22h16a11 11 0 0 1 0 22z"></path><path d="m8 48h-2a9.01 9.01 0 0 0 9 9v-2a7.008 7.008 0 0 1 -7-7z"></path><path d="m49 39v2a7.008 7.008 0 0 1 7 7h2a9.01 9.01 0 0 0 -9-9z"></path><path d="m49.024 7.981a6.956 6.956 0 0 1 4.946 2.04l1.412-1.416a9.014 9.014 0 0 0 -12.721.006l1.414 1.414a6.957 6.957 0 0 1 4.949-2.044z"></path></svg>