<svg xmlns="http://www.w3.org/2000/svg" viewBox="0 0 64 64"><path d="m57 8h-23.892a3.01 3.01 0 0 1 -1.544-.427l-8.1-4.861a5 5 0 0 0 -2.572-.712h-13.892a5.006 5.006 0 0 0 -5 5v50a5.006 5.006 0 0 0 5 5h50a5.006 5.006 0 0 0 5-5v-44a5.006 5.006 0 0 0 -5-5zm3 49a3 3 0 0 1 -3 3h-50a3 3 0 0 1 -3-3v-25h15.7a4.968 4.968 0 0 0 2.941-.957l8.9-6.469a2.981 2.981 0 0 1 1.759-.574h26.7zm-52-33h10v-10h38v8h-22.7a4.968 4.968 0 0 0 -2.941.957l-8.9 6.469a2.981 2.981 0 0 1 -1.759.574h-11.7zm1.414-2 6.586-6.586v6.586zm48.586 0v-10h-41.414l-10.586 10.586v7.414h-2v-23a3 3 0 0 1 3-3h13.892a3.01 3.01 0 0 1 1.544.427l8.1 4.861a5 5 0 0 0 2.572.712h23.892a3 3 0 0 1 3 3v9z"></path><path d="m8 54h12v2h-12z"></path><path d="m8 51h12v2h-12z"></path><path d="m8 48h6v2h-6z"></path><path d="m49 39h-4v-4a2 2 0 0 0 -2-2h-2a2 2 0 0 0 -2 2v4h-4a2 2 0 0 0 -2 2v2a2 2 0 0 0 2 2h4v4a2 2 0 0 0 2 2h2a2 2 0 0 0 2-2v-4h4a2 2 0 0 0 2-2v-2a2 2 0 0 0 -2-2zm0 4h-4a2 2 0 0 0 -2 2v4h-2v-4a2 2 0 0 0 -2-2h-4v-2h4a2 2 0 0 0 2-2v-4h2v4a2 2 0 0 0 2 2h4z"></path><path d="m42 28a14 14 0 1 0 14 14 14.015 14.015 0 0 0 -14-14zm0 26a12 12 0 1 1 12-12 12.013 12.013 0 0 1 -12 12z"></path><path d="m10 26h10v2h-10z"></path><path d="m22 16h2v2h-2z"></path><path d="m26 16h26v2h-26z"></path><path d="m22 19h2v2h-2z"></path><path d="m22 22h2v2h-2z"></path><path d="m26 19h26v2h-26z"></path></svg>