<svg xmlns="http://www.w3.org/2000/svg" viewBox="0 0 64 64"><g><path d="M53,60V59a3,3,0,0,0-3-3H40.781l-.36-1.44A19.977,19.977,0,0,0,41.9,18.108l1.022-1.771,1.736,1,1-1.733-3.463-2,2-3.462,1.732,1,1-1.733-13.856-8-1,1.733,1.732,1-2,3.461-3.466-2-1,1.733,1.732,1-10,17.322-1.735-1-1,1.733,5.2,3-3,5.2,6.928,4,3-5.194,5.2,3,1-1.733-1.733-1,1.991-3.453C38.363,31.923,40,34.73,40,39a13.479,13.479,0,0,1-1.734,6.941L37.781,44H26.219l-.5,2H12v2H25.219l-2,8H14a3,3,0,0,0-3,3v1H8v2H56V60ZM35.536,5.144l6.928,4-2,3.462-6.927-4Zm-10.8,30.712-3.462-2,2-3.461,3.463,2Zm-3.923-9.194L30.8,9.34l10.39,6-3.346,5.8a2.986,2.986,0,0,0-2.91,5.031L31.2,32.66ZM37,25a1,1,0,1,1,1-1A1,1,0,0,1,37,25Zm5,14c0-4.942-2.063-8.464-6.085-10.524l.864-1.5c.074,0,.145.022.221.022a3,3,0,0,0,2.478-4.688L40.9,19.845a17.981,17.981,0,0,1-.967,32.76l-1.024-4.094A14.81,14.81,0,0,0,42,39ZM27.781,46h8.438l2.5,10H25.281ZM51,60H13V59a1,1,0,0,1,1-1H50a1,1,0,0,1,1,1Z"></path><path d="M32,48a3,3,0,1,0,3,3A3,3,0,0,0,32,48Zm0,4a1,1,0,1,1,1-1A1,1,0,0,1,32,52Z"></path></g></svg>